<svg xmlns="http://www.w3.org/2000/svg" version="1.1" xmlns:xlink="http://www.w3.org/1999/xlink" width="512" height="512" x="0" y="0" viewBox="0 0 96 96" style="enable-background:new 0 0 512 512" xml:space="preserve" class=""><g><g fill="#43477e"><circle cx="46.76" cy="17.55" r="5.3" fill="#43477e" opacity="1" data-original="#43477e" class=""></circle><rect width="21.4" height="4.95" x="36.06" y="38.56" rx="2.11" fill="#43477e" opacity="1" data-original="#43477e" class=""></rect><rect width="21.4" height="4.22" x="36.06" y="29.36" rx="2.11" fill="#43477e" opacity="1" data-original="#43477e" class=""></rect><rect width="25.14" height="4.95" x="34.19" y="33.6" rx="2.11" fill="#43477e" opacity="1" data-original="#43477e" class=""></rect><path d="M53.52 29.36H40l-2.12-4.75A1.25 1.25 0 0 1 39 22.84h15.5a1.26 1.26 0 0 1 1.15 1.77zM54.41 43.51H39.12c-.73 18.05 0 16.18-5.89 29H60.3c-5.76-12.6-5.16-10.74-5.89-29z" fill="#43477e" opacity="1" data-original="#43477e" class=""></path></g><rect width="39.28" height="6.3" x="27.12" y="77.44" fill="#393360" rx="2.69" opacity="1" data-original="#393360"></rect><path fill="#2f2e4c" d="M32.73 72.5H60.8a2.67 2.67 0 0 1 2.67 2.67v2.28H30.05v-2.28a2.67 2.67 0 0 1 2.68-2.67z" opacity="1" data-original="#2f2e4c"></path><path fill="#526a97" d="M86.62 21.21h-2.5a1.48 1.48 0 0 0-1.47 1.33l-.41 4.21a1 1 0 0 1-1 .91h-2.5a1 1 0 0 1-1-1.05l.13-3.87a1.48 1.48 0 0 0-1.48-1.53h-2.07a1.48 1.48 0 0 0-1.48 1.53l.16 3.87a1 1 0 0 1-1 1.05h-2.5a1 1 0 0 1-1-.91l-.5-4.21a1.48 1.48 0 0 0-1.47-1.33h-2.45a1.48 1.48 0 0 0-1.46 1.73l2 11.67a4.73 4.73 0 0 0 4.67 3.93h12.09a4.75 4.75 0 0 0 4.67-3.93l2-11.67a1.48 1.48 0 0 0-1.43-1.73z" opacity="1" data-original="#526a97" class=""></path><rect width="15.47" height="4.95" x="39.03" y="38.56" fill="#436aab" rx="2.11" opacity="1" data-original="#436aab"></rect><path fill="#345174" d="m88.07 22.94-2 11.67a4.75 4.75 0 0 1-4.67 3.93H69.32a4.73 4.73 0 0 1-4.67-3.93l-2-11.67a1.43 1.43 0 0 1 .31-1.17l1.72 9.87a4.72 4.72 0 0 0 4.67 3.93h12.03a4.74 4.74 0 0 0 4.67-3.93l1.71-9.87a1.43 1.43 0 0 1 .31 1.17z" opacity="1" data-original="#345174"></path><rect width="15.47" height="4.22" x="39.03" y="29.36" fill="#436aab" rx="2.11" opacity="1" data-original="#436aab"></rect><rect width="18.89" height="4.95" x="37.32" y="33.6" fill="#436aab" rx="2.11" opacity="1" data-original="#436aab"></rect><rect width="8.89" height="4.95" x="42.32" y="33.6" fill="#84b0dd" rx="2.11" opacity="1" data-original="#84b0dd"></rect><path fill="#436fb5" d="M43.55 68.5a2.79 2.79 0 0 1-2.63-3.69 34.29 34.29 0 0 0 1.73-9.49l.2-5.13a2.79 2.79 0 0 1 2.79-2.68h2.24a2.79 2.79 0 0 1 2.79 2.68c.23 5.69.15 9.25 1.94 14.62A2.79 2.79 0 0 1 50 68.5z" opacity="1" data-original="#436fb5"></path><path fill="#436aab" d="M55.65 24.61 55 26.05a1.35 1.35 0 0 0-.5-.1c-16.74 0-15.62 0-16 .1l-.64-1.44A1.25 1.25 0 0 1 39 22.84h15.5a1.26 1.26 0 0 1 1.15 1.77z" opacity="1" data-original="#436aab"></path><rect width="39.28" height="6.3" x="1.01" y="77.44" fill="#526a97" rx="2.69" opacity="1" data-original="#526a97" class=""></rect><path fill="#3e4274" d="M6.62 72.5h28.07a2.67 2.67 0 0 1 2.67 2.67v2.28H3.95v-2.28a2.67 2.67 0 0 1 2.67-2.67z" opacity="1" data-original="#3e4274" class=""></path><rect width="21.4" height="4.95" x="9.95" y="40.22" fill="#526a97" rx="2.11" opacity="1" data-original="#526a97" class=""></rect><rect width="14.11" height="4.95" x="13.6" y="40.22" fill="#708db5" rx="2.11" opacity="1" data-original="#708db5"></rect><rect width="25.14" height="4.95" x="8.09" y="45.18" fill="#526a97" rx="2.11" opacity="1" data-original="#526a97" class=""></rect><rect width="18.69" height="4.95" x="11.31" y="45.18" fill="#708db5" rx="2.11" opacity="1" data-original="#708db5"></rect><rect width="9.28" height="4.95" x="16.02" y="45.18" fill="#acc4dd" rx="2.11" opacity="1" data-original="#acc4dd" class=""></rect><circle cx="20.65" cy="32.56" r="7.66" fill="#526a97" opacity="1" data-original="#526a97" class=""></circle><path fill="#acc4dd" d="M24.35 31.54c0 1.26-1.65 1.46-3.7 1.46S17 32.8 17 31.54s1.66-3.1 3.7-3.1 3.65 1.84 3.65 3.1z" opacity="1" data-original="#acc4dd" class=""></path><path fill="#526a97" d="M32.28 72.5H9.03l4.51-22.37h14.23z" opacity="1" data-original="#526a97" class=""></path><path fill="#708db5" d="m14.59 65.15 1.77-8.78a2.8 2.8 0 0 1 2.74-2.24h3.11A2.8 2.8 0 0 1 25 56.37l1.77 8.78A2.79 2.79 0 0 1 24 68.5h-6.67a2.79 2.79 0 0 1-2.74-3.35z" opacity="1" data-original="#708db5"></path><rect width="21.4" height="4.95" x="64.65" y="38.56" fill="#526a97" rx="2.11" opacity="1" data-original="#526a97" class=""></rect><path fill="#526a97" d="M83 43.51H67.7c-.72 18.05 0 16.18-5.89 29h27.07c-5.75-12.6-5.16-10.74-5.88-29z" opacity="1" data-original="#526a97" class=""></path><rect width="13.18" height="4.95" x="68.75" y="38.56" fill="#708db5" rx="2.11" opacity="1" data-original="#708db5"></rect><rect width="5.75" height="4.95" x="72.47" y="38.56" fill="#acc4dd" rx="2.11" opacity="1" data-original="#acc4dd" class=""></rect><path fill="#acc4dd" d="M63 24.86a1.47 1.47 0 0 1 1.13-.53h2.49A1.48 1.48 0 0 1 68 25.67l.06.58h.3L68 22.54a1.48 1.48 0 0 0-1.47-1.33h-2.45a1.48 1.48 0 0 0-1.46 1.73zM77.76 25.34a1.46 1.46 0 0 0-1.39-1h-2.05a1.46 1.46 0 0 0-1.39 1l-.09-2.6a1.48 1.48 0 0 1 1.48-1.53h2.05a1.48 1.48 0 0 1 1.48 1.53zM82.59 26.25l.06-.58a1.48 1.48 0 0 1 1.47-1.34h2.5a1.47 1.47 0 0 1 1.12.53l.33-1.92a1.48 1.48 0 0 0-1.45-1.73h-2.5a1.48 1.48 0 0 0-1.47 1.33l-.36 3.71z" opacity="1" data-original="#acc4dd" class=""></path><path fill="#708db5" d="M72.14 68.5a2.79 2.79 0 0 1-2.64-3.69 33.83 33.83 0 0 0 1.73-9.49l.21-5.13a2.79 2.79 0 0 1 2.79-2.68h2.24a2.79 2.79 0 0 1 2.79 2.68c.22 5.68.14 9.25 1.93 14.62a2.79 2.79 0 0 1-2.63 3.69z" opacity="1" data-original="#708db5"></path><path fill="#3e4274" d="M69.92 67.65h-5.43a1 1 0 1 1 0-2h5.43a1 1 0 0 1 0 2zM77.11 67.65h-1.76a1 1 0 0 1 0-2h1.76a1 1 0 0 1 0 2z" opacity="1" data-original="#3e4274" class=""></path><rect width="39.28" height="6.3" x="55.7" y="77.44" fill="#526a97" rx="2.69" opacity="1" data-original="#526a97" class=""></rect><path fill="#3e4274" d="M61.31 72.5h28.07a2.67 2.67 0 0 1 2.67 2.67v2.28H58.64v-2.28a2.67 2.67 0 0 1 2.67-2.67z" opacity="1" data-original="#3e4274" class=""></path></g></svg>